<?xml version="1.0" encoding="UTF-8" standalone="no"?>
<!-- Created with Inkscape (http://www.inkscape.org/) -->

<svg
   width="170mm"
   height="50mm"
   viewBox="0 0 642.5197 188.97637"
   version="1.1"
   id="svg5"
   inkscape:version="1.3 (1:1.3+202307231459+0e150ed6c4)"
   sodipodi:docname="xt-heath.svg"
   xmlns:inkscape="http://www.inkscape.org/namespaces/inkscape"
   xmlns:sodipodi="http://sodipodi.sourceforge.net/DTD/sodipodi-0.dtd"
   xmlns="http://www.w3.org/2000/svg"
   xmlns:svg="http://www.w3.org/2000/svg">
  <sodipodi:namedview
     id="namedview7"
     pagecolor="#505050"
     bordercolor="#505050"
     borderopacity="1"
     inkscape:pageshadow="0"
     inkscape:pageopacity="0"
     inkscape:pagecheckerboard="0"
     inkscape:document-units="mm"
     showgrid="false"
     width="170mm"
     inkscape:zoom="2"
     inkscape:cx="393.75"
     inkscape:cy="127"
     inkscape:window-width="1920"
     inkscape:window-height="1017"
     inkscape:window-x="0"
     inkscape:window-y="32"
     inkscape:window-maximized="1"
     inkscape:current-layer="g195"
     height="50mm"
     inkscape:showpageshadow="0"
     inkscape:deskcolor="#6a6a6a"
     borderlayer="true"
     showborder="true"
     inkscape:lockguides="false">
    <sodipodi:guide
       position="0,188.97637"
       orientation="0,642.51969"
       id="guide4"
       inkscape:locked="false" />
    <sodipodi:guide
       position="642.51966,188.97637"
       orientation="188.97638,0"
       id="guide5"
       inkscape:locked="false" />
    <sodipodi:guide
       position="642.51966,0"
       orientation="0,-642.51969"
       id="guide6"
       inkscape:locked="false" />
    <sodipodi:guide
       position="0,0"
       orientation="-188.97638,0"
       id="guide7"
       inkscape:locked="false" />
  </sodipodi:namedview>
  <defs
     id="defs2">
    <marker
       style="overflow:visible"
       id="marker1938"
       refX="0.0"
       refY="0.0"
       orient="auto"
       inkscape:stockid="TriangleInS"
       inkscape:isstock="true">
      <path
         transform="scale(-0.2)"
         style="fill-rule:evenodd;fill:context-stroke;stroke:context-stroke;stroke-width:1.0pt"
         d="M 5.77,0.0 L -2.88,5.0 L -2.88,-5.0 L 5.77,0.0 z "
         id="path1761" />
    </marker>
    <marker
       style="overflow:visible"
       id="marker1929"
       refX="0.0"
       refY="0.0"
       orient="auto"
       inkscape:stockid="TriangleOutS"
       inkscape:isstock="true"
       viewBox="0 0 2.12976324 2.46215403"
       markerWidth="2.12976324"
       markerHeight="2.46215403"
       preserveAspectRatio="xMidYMid">
      <path
         transform="scale(0.2)"
         style="fill-rule:evenodd;fill:context-stroke;stroke:context-stroke;stroke-width:1.0pt"
         d="M 5.77,0.0 L -2.88,5.0 L -2.88,-5.0 L 5.77,0.0 z "
         id="path1927" />
    </marker>
    <marker
       style="overflow:visible"
       id="marker1883"
       refX="0.0"
       refY="0.0"
       orient="auto"
       inkscape:stockid="TriangleOutS"
       inkscape:isstock="true">
      <path
         transform="scale(0.2)"
         style="fill-rule:evenodd;fill:context-stroke;stroke:context-stroke;stroke-width:1.0pt"
         d="M 5.77,0.0 L -2.88,5.0 L -2.88,-5.0 L 5.77,0.0 z "
         id="path1770" />
    </marker>
    <marker
       style="overflow:visible"
       id="TriangleInS"
       refX="0"
       refY="0"
       orient="auto"
       inkscape:stockid="TriangleInS"
       inkscape:isstock="true">
      <path
         transform="scale(-0.2)"
         style="fill:context-stroke;fill-rule:evenodd;stroke:context-stroke;stroke-width:1pt"
         d="M 5.77,0 -2.88,5 V -5 Z"
         id="path52001" />
    </marker>
    <marker
       style="overflow:visible"
       id="TriangleOutS"
       refX="0"
       refY="0"
       orient="auto"
       inkscape:stockid="TriangleOutS"
       inkscape:isstock="true">
      <path
         transform="scale(0.2)"
         style="fill:context-stroke;fill-rule:evenodd;stroke:context-stroke;stroke-width:1pt"
         d="M 5.77,0 -2.88,5 V -5 Z"
         id="path52010" />
    </marker>
    <marker
       style="overflow:visible"
       id="Arrow2Send"
       refX="0"
       refY="0"
       orient="auto"
       inkscape:stockid="Arrow2Send"
       inkscape:isstock="true">
      <path
         transform="matrix(-0.3,0,0,-0.3,0.69,0)"
         d="M 8.7185878,4.0337352 -2.2072895,0.01601326 8.7185884,-4.0017078 c -1.7454984,2.3720609 -1.7354408,5.6174519 -6e-7,8.035443 z"
         style="fill:context-stroke;fill-rule:evenodd;stroke:context-stroke;stroke-width:0.625;stroke-linejoin:round"
         id="path51895" />
    </marker>
    <marker
       style="overflow:visible"
       id="Arrow1Send"
       refX="0"
       refY="0"
       orient="auto"
       inkscape:stockid="Arrow1Send"
       inkscape:isstock="true">
      <path
         transform="matrix(-0.2,0,0,-0.2,-1.2,0)"
         style="fill:context-stroke;fill-rule:evenodd;stroke:context-stroke;stroke-width:1pt"
         d="M 0,0 5,-5 -12.5,0 5,5 Z"
         id="path51877" />
    </marker>
    <marker
       style="overflow:visible"
       id="Arrow1Sstart"
       refX="0"
       refY="0"
       orient="auto"
       inkscape:stockid="Arrow1Sstart"
       inkscape:isstock="true">
      <path
         transform="matrix(0.2,0,0,0.2,1.2,0)"
         style="fill:context-stroke;fill-rule:evenodd;stroke:context-stroke;stroke-width:1pt"
         d="M 0,0 5,-5 -12.5,0 5,5 Z"
         id="path51874" />
    </marker>
    <marker
       style="overflow:visible"
       id="Arrow1Lend"
       refX="0"
       refY="0"
       orient="auto"
       inkscape:stockid="Arrow1Lend"
       inkscape:isstock="true">
      <path
         transform="matrix(-0.8,0,0,-0.8,-10,0)"
         style="fill:context-stroke;fill-rule:evenodd;stroke:context-stroke;stroke-width:1pt"
         d="M 0,0 5,-5 -12.5,0 5,5 Z"
         id="path51865" />
    </marker>
    <marker
       style="overflow:visible"
       id="marker1938-3"
       refX="0"
       refY="0"
       orient="auto"
       inkscape:stockid="TriangleInS"
       inkscape:isstock="true">
      <path
         transform="scale(-0.2)"
         style="fill:context-stroke;fill-rule:evenodd;stroke:context-stroke;stroke-width:1pt"
         d="M 5.77,0 -2.88,5 V -5 Z"
         id="path1761-6" />
    </marker>
    <marker
       style="overflow:visible"
       id="marker1883-7"
       refX="0"
       refY="0"
       orient="auto"
       inkscape:stockid="TriangleOutS"
       inkscape:isstock="true">
      <path
         transform="scale(0.2)"
         style="fill:context-stroke;fill-rule:evenodd;stroke:context-stroke;stroke-width:1pt"
         d="M 5.77,0 -2.88,5 V -5 Z"
         id="path1770-5" />
    </marker>
  </defs>
  <g
     inkscape:label="Layer 1"
     inkscape:groupmode="layer"
     id="layer1">
    <text
       xml:space="preserve"
       style="font-size:2.66667px;line-height:1.25;font-family:sans-serif"
       x="177.73657"
       y="92.170944"
       id="text8016"><tspan
         sodipodi:role="line"
         id="tspan8014"
         x="177.73657"
         y="92.170944" /></text>
    <g
       id="g3"
       transform="translate(46.056212,-5.7098301)">
      <path
         style="fill:none;stroke:#000000;stroke-width:0.798458px;stroke-linecap:butt;stroke-linejoin:miter;stroke-opacity:1"
         d="m 347.22071,133.81036 c 0,0 17.28115,-26.56341 34.84817,-21.88198 17.56703,4.68143 60.96289,-23.319086 60.96289,-23.319086 0,0 39.83623,-26.959868 62.98279,10.51102 23.14655,37.470886 58.29014,17.818096 58.29014,17.818096"
         id="path1260-2" />
      <g
         id="g2"
         transform="translate(8.2457273,-8.1210935)">
        <path
           style="fill:none;stroke:#000000;stroke-width:0.798458px;stroke-linecap:butt;stroke-linejoin:miter;stroke-opacity:1;marker-start:url(#marker1938-3)"
           d="M 338.80909,54.610007 V 174.63822"
           id="path1141-3" />
        <path
           style="fill:none;stroke:#000000;stroke-width:0.798458px;stroke-linecap:butt;stroke-linejoin:miter;stroke-opacity:1;marker-end:url(#marker1883-7)"
           d="m 325.0006,165.82188 218.03903,-0.33326"
           id="path1143-5" />
        <text
           xml:space="preserve"
           style="font-size:10.6461px;line-height:1.25;font-family:sans-serif;stroke-width:0.798458"
           x="548.87207"
           y="168.96167"
           id="text4672-6"><tspan
             sodipodi:role="line"
             id="tspan4670-2"
             x="548.87207"
             y="168.96167"
             style="stroke-width:0.798458">$x$</tspan></text>
        <text
           xml:space="preserve"
           style="font-size:10.6461px;line-height:1.25;font-family:sans-serif;stroke-width:0.798458"
           x="337.12717"
           y="49.880608"
           id="text17960-9"><tspan
             sodipodi:role="line"
             id="tspan17958-1"
             x="337.12717"
             y="49.880608"
             style="stroke-width:0.798458">$u$</tspan></text>
      </g>
    </g>
    <g
       id="g4"
       transform="translate(0,-2.0048132)">
      <path
         style="fill:none;stroke:#000000;stroke-width:0.798458px;stroke-linecap:butt;stroke-linejoin:miter;stroke-opacity:1;marker-start:url(#marker1938)"
         d="M 21.033873,42.783896 V 162.81211"
         id="path1141" />
      <path
         style="fill:none;stroke:#000000;stroke-width:0.798458px;stroke-linecap:butt;stroke-linejoin:miter;stroke-opacity:1;marker-end:url(#marker1883)"
         d="M 7.2253751,153.99577 225.26441,153.66251"
         id="path1143" />
      <path
         style="fill:none;stroke:#000000;stroke-width:0.798458px;stroke-linecap:butt;stroke-linejoin:miter;stroke-opacity:1;marker-end:url(#marker1929)"
         d="M 14.384097,160.6926 128.40529,46.671416"
         id="path1145" />
      <path
         style="fill:none;stroke:#000000;stroke-width:0.798458px;stroke-linecap:butt;stroke-linejoin:miter;stroke-opacity:1"
         d="m 20.836783,141.37747 c 0,0 17.281145,-26.56341 34.848171,-21.88198 17.567025,4.68143 60.962886,-23.319087 60.962886,-23.319087 0,0 39.83623,-26.959871 62.98279,10.511017 23.14655,37.47089 58.29014,17.8181 58.29014,17.8181"
         id="path1260" />
      <path
         style="fill:none;stroke:#000000;stroke-width:0.760023px;stroke-linecap:butt;stroke-linejoin:miter;stroke-opacity:1"
         d="m 34.160609,129.49695 c 0,0 17.283349,-24.06452 34.852602,-19.82348 17.569269,4.24104 60.970649,-21.125407 60.970649,-21.125407 0,0 39.84131,-24.423691 62.99081,9.522219 23.1495,33.945898 58.29757,16.141908 58.29757,16.141908"
         id="path1260-7" />
      <path
         style="fill:none;stroke:#000000;stroke-width:0.721338px;stroke-linecap:butt;stroke-linejoin:miter;stroke-opacity:1"
         d="m 47.483757,117.72847 c 0,0 17.28552,-21.674425 34.856993,-17.854612 17.571481,3.819822 60.97833,-19.027219 60.97833,-19.027219 0,0 39.84632,-21.99792 62.99875,8.576468 23.15241,30.574393 58.3049,14.538683 58.3049,14.538683"
         id="path1260-5" />
      <path
         style="fill:none;stroke:#000000;stroke-width:0.601143px;stroke-linecap:butt;stroke-linejoin:miter;stroke-opacity:1"
         d="m 60.748888,101.58736 c 0,0 17.292348,-15.047091 34.870759,-12.395253 17.578413,2.651842 61.002393,-13.209315 61.002393,-13.209315 0,0 39.86206,-15.271671 63.02361,5.954064 23.16156,21.225734 58.32792,10.09323 58.32792,10.09323"
         id="path1260-3" />
      <path
         style="fill:none;stroke:#000000;stroke-width:0.495323px;stroke-linecap:butt;stroke-linejoin:miter;stroke-opacity:1"
         d="m 74.027298,87.298316 c 0,0 17.298352,-10.212316 34.882872,-8.412539 17.58451,1.799779 61.02358,-8.965034 61.02358,-8.965034 0,0 39.8759,-10.364736 63.0455,4.040965 23.1696,14.405703 58.34819,6.850178 58.34819,6.850178"
         id="path1260-56" />
      <path
         style="fill:none;stroke:#000000;stroke-width:0.798458px;stroke-linecap:butt;stroke-linejoin:miter;stroke-opacity:1"
         d="m 150.07902,87.128223 c 0,0 35.14058,-21.668989 60.78293,-20.045145"
         id="path1986" />
      <path
         style="fill:none;stroke:#000000;stroke-width:0.788491px;stroke-linecap:butt;stroke-linejoin:miter;stroke-opacity:1"
         d="m 182.65595,110.59014 c 0,0 24.42446,-29.759024 48.71538,-37.548478"
         id="path1988" />
      <path
         style="fill:none;stroke:#000000;stroke-width:0.791433px;stroke-linecap:butt;stroke-linejoin:miter;stroke-opacity:1"
         d="m 208.21979,129.02303 c 0,0 26.81463,-27.7036 45.30895,-47.666507"
         id="path1990" />
      <path
         style="fill:none;stroke:#000000;stroke-width:0.885842px;stroke-linecap:butt;stroke-linejoin:miter;stroke-opacity:1"
         d="m 86.263846,113.1546 c 0,0 3.613591,-7.62387 35.684364,-34.32363"
         id="path1992" />
      <text
         xml:space="preserve"
         style="font-size:10.6461px;line-height:1.25;font-family:sans-serif;stroke-width:0.798458"
         x="231.09686"
         y="157.13556"
         id="text4672"><tspan
           sodipodi:role="line"
           id="tspan4670"
           x="231.09686"
           y="157.13556"
           style="stroke-width:0.798458">$x$</tspan></text>
      <text
         xml:space="preserve"
         style="font-size:10.6461px;line-height:1.25;font-family:sans-serif;stroke-width:0.798458"
         x="19.351938"
         y="38.054497"
         id="text17960"><tspan
           sodipodi:role="line"
           id="tspan17958"
           x="19.351938"
           y="38.054497"
           style="stroke-width:0.798458">$u$</tspan></text>
      <text
         xml:space="preserve"
         style="font-size:10.6461px;line-height:1.25;font-family:sans-serif;stroke-width:0.798458"
         x="125.56715"
         y="43.939957"
         id="text32554"><tspan
           sodipodi:role="line"
           x="125.56715"
           y="43.939957"
           id="tspan32556"
           style="stroke-width:0.798458">$t$</tspan></text>
    </g>
    <path
       style="fill:none;stroke:#000000;stroke-width:1.75748;stroke-linecap:butt;stroke-linejoin:miter;stroke-dasharray:none;stroke-opacity:1;marker-end:url(#marker1929)"
       d="m 297.03688,102.35759 h 72.46655"
       id="path4" />
    <text
       xml:space="preserve"
       style="font-size:13.3333px;line-height:1.25;font-family:sans-serif"
       x="305.33224"
       y="94.324959"
       id="text4"><tspan
         sodipodi:role="line"
         id="tspan4"
         x="305.33224"
         y="94.324959">At time $t_0$</tspan><tspan
         sodipodi:role="line"
         x="305.33224"
         y="110.99158"
         id="tspan5" /></text>
    <g
       inkscape:label=""
       transform="translate(487.314, 35.8159)"
       id="g196">
      <g
         id="g131"
         transform="matrix(1.33333 0 0 1.33333 -3.0115 -2.667)">
        <g
           inkscape:label=""
           transform="matrix(0.750002 0 0 0.750002 -67.9145 70.3885)"
           id="g195">
          <g
             id="g194"
             transform="matrix(1.33333,0,0,1.33333,90.296923,-84.655093)">
            <g
               style="fill:#000000;fill-opacity:1"
               id="g137">
              <g
                 id="g133"
                 transform="translate(1.993,6.836)">
                <path
                   style="stroke:none"
                   d="M 5.1875,-4.703125 H 0.484375 l -0.15625,1.59375 h 0.25 C 0.671875,-4.3125 0.875,-4.453125 1.9375,-4.453125 c 0.140625,0 0.34375,0 0.421875,0 0.15625,0.03125 0.15625,0.109375 0.15625,0.265625 v 3.609375 c 0,0.234375 0,0.328125 -0.734375,0.328125 H 1.484375 V 0 c 0.34375,-0.03125 1,-0.03125 1.359375,-0.03125 0.359375,0 1,0 1.34375,0.03125 V -0.25 H 3.890625 c -0.71875,0 -0.71875,-0.09375 -0.71875,-0.328125 V -4.1875 c 0,-0.15625 0,-0.234375 0.15625,-0.265625 0.0625,0 0.265625,0 0.40625,0 0.390625,0 0.6875,0 0.9375,0.125 C 4.984375,-4.125 5.03125,-3.6875 5.03125,-3.65625 l 0.0625,0.546875 h 0.25 z m 0,0"
                   id="path133" />
              </g>
              <g
                 id="g134"
                 transform="translate(7.6801338,6.836)">
                <path
                   style="stroke:none"
                   d="m 3.59375,-2.109375 c 0,-0.609375 -0.296875,-0.96875 -1.046875,-0.96875 -0.625,0 -0.96875,0.375 -1.125,0.640625 V -4.84375 L 0.375,-4.765625 v 0.25 c 0.46875,0 0.53125,0.0625 0.53125,0.390625 v 3.578125 C 0.90625,-0.25 0.828125,-0.25 0.375,-0.25 V 0 C 0.390625,0 0.875,-0.03125 1.171875,-0.03125 1.421875,-0.03125 1.90625,0 1.96875,0 v -0.25 c -0.453125,0 -0.515625,0 -0.515625,-0.296875 V -1.8125 c 0,-0.71875 0.578125,-1.0625 1.03125,-1.0625 0.484375,0 0.546875,0.375 0.546875,0.734375 v 1.59375 C 3.03125,-0.25 2.96875,-0.25 2.515625,-0.25 V 0 C 2.53125,0 3.015625,-0.03125 3.3125,-0.03125 3.5625,-0.03125 4.046875,0 4.109375,0 v -0.25 c -0.453125,0 -0.515625,0 -0.515625,-0.296875 z m 0,0"
                   id="path134" />
              </g>
              <g
                 id="g135"
                 transform="translate(12.080602,6.836)">
                <path
                   style="stroke:none"
                   d="m 1.46875,-4.296875 c 0,-0.203125 -0.171875,-0.40625 -0.40625,-0.40625 -0.203125,0 -0.390625,0.171875 -0.390625,0.40625 0,0.25 0.203125,0.40625 0.390625,0.40625 0.234375,0 0.40625,-0.171875 0.40625,-0.40625 z M 0.40625,-3 v 0.25 c 0.4375,0 0.5,0.046875 0.5,0.390625 v 1.8125 C 0.90625,-0.25 0.84375,-0.25 0.390625,-0.25 V 0 c 0.015625,0 0.5,-0.03125 0.78125,-0.03125 0.25,0 0.5,0.015625 0.734375,0.03125 V -0.25 C 1.5,-0.25 1.4375,-0.25 1.4375,-0.546875 v -2.53125 z m 0,0"
                   id="path135" />
              </g>
              <g
                 id="g136"
                 transform="translate(14.335929,6.836)">
                <path
                   style="stroke:none"
                   d="m 2.640625,-2.921875 c 0,-0.125 0,-0.1875 -0.09375,-0.1875 -0.03125,0 -0.046875,0 -0.140625,0.078125 -0.015625,0.015625 -0.078125,0.078125 -0.125,0.109375 -0.21875,-0.140625 -0.46875,-0.1875 -0.734375,-0.1875 -1,0 -1.234375,0.53125 -1.234375,0.875 0,0.21875 0.09375,0.40625 0.265625,0.546875 0.265625,0.21875 0.53125,0.265625 0.96875,0.34375 0.34375,0.0625 0.90625,0.15625 0.90625,0.625 0,0.265625 -0.1875,0.59375 -0.859375,0.59375 -0.671875,0 -0.90625,-0.4375 -1.03125,-0.90625 -0.03125,-0.09375 -0.03125,-0.125 -0.125,-0.125 -0.125,0 -0.125,0.046875 -0.125,0.1875 v 0.859375 C 0.3125,0 0.3125,0.0625 0.40625,0.0625 0.46875,0.0625 0.609375,-0.078125 0.75,-0.234375 1.046875,0.0625 1.421875,0.0625 1.59375,0.0625 c 0.90625,0 1.25,-0.484375 1.25,-0.96875 0,-0.265625 -0.125,-0.484375 -0.3125,-0.640625 -0.265625,-0.25 -0.578125,-0.3125 -0.828125,-0.34375 -0.546875,-0.109375 -1,-0.1875 -1,-0.5625 0,-0.21875 0.1875,-0.484375 0.84375,-0.484375 0.8125,0 0.84375,0.5625 0.859375,0.765625 0,0.078125 0.09375,0.078125 0.109375,0.078125 0.125,0 0.125,-0.046875 0.125,-0.1875 z m 0,0"
                   id="path136" />
              </g>
            </g>
            <g
               style="fill:#000000;fill-opacity:1"
               id="g140">
              <g
                 id="g138"
                 transform="translate(20.177183,6.836)">
                <path
                   style="stroke:none"
                   d="m 1.46875,-4.296875 c 0,-0.203125 -0.171875,-0.40625 -0.40625,-0.40625 -0.203125,0 -0.390625,0.171875 -0.390625,0.40625 0,0.25 0.203125,0.40625 0.390625,0.40625 0.234375,0 0.40625,-0.171875 0.40625,-0.40625 z M 0.40625,-3 v 0.25 c 0.4375,0 0.5,0.046875 0.5,0.390625 v 1.8125 C 0.90625,-0.25 0.84375,-0.25 0.390625,-0.25 V 0 c 0.015625,0 0.5,-0.03125 0.78125,-0.03125 0.25,0 0.5,0.015625 0.734375,0.03125 V -0.25 C 1.5,-0.25 1.4375,-0.25 1.4375,-0.546875 v -2.53125 z m 0,0"
                   id="path137" />
              </g>
              <g
                 id="g139"
                 transform="translate(22.43251,6.836)">
                <path
                   style="stroke:none"
                   d="m 2.640625,-2.921875 c 0,-0.125 0,-0.1875 -0.09375,-0.1875 -0.03125,0 -0.046875,0 -0.140625,0.078125 -0.015625,0.015625 -0.078125,0.078125 -0.125,0.109375 -0.21875,-0.140625 -0.46875,-0.1875 -0.734375,-0.1875 -1,0 -1.234375,0.53125 -1.234375,0.875 0,0.21875 0.09375,0.40625 0.265625,0.546875 0.265625,0.21875 0.53125,0.265625 0.96875,0.34375 0.34375,0.0625 0.90625,0.15625 0.90625,0.625 0,0.265625 -0.1875,0.59375 -0.859375,0.59375 -0.671875,0 -0.90625,-0.4375 -1.03125,-0.90625 -0.03125,-0.09375 -0.03125,-0.125 -0.125,-0.125 -0.125,0 -0.125,0.046875 -0.125,0.1875 v 0.859375 C 0.3125,0 0.3125,0.0625 0.40625,0.0625 0.46875,0.0625 0.609375,-0.078125 0.75,-0.234375 1.046875,0.0625 1.421875,0.0625 1.59375,0.0625 c 0.90625,0 1.25,-0.484375 1.25,-0.96875 0,-0.265625 -0.125,-0.484375 -0.3125,-0.640625 -0.265625,-0.25 -0.578125,-0.3125 -0.828125,-0.34375 -0.546875,-0.109375 -1,-0.1875 -1,-0.5625 0,-0.21875 0.1875,-0.484375 0.84375,-0.484375 0.8125,0 0.84375,0.5625 0.859375,0.765625 0,0.078125 0.09375,0.078125 0.109375,0.078125 0.125,0 0.125,-0.046875 0.125,-0.1875 z m 0,0"
                   id="path138" />
              </g>
            </g>
            <g
               style="fill:#000000;fill-opacity:1"
               id="g144">
              <g
                 id="g141"
                 transform="translate(28.273766,6.836)">
                <path
                   style="stroke:none"
                   d="M 1.40625,-2.75 H 2.484375 V -3 H 1.40625 v -1.28125 h -0.25 c 0,0.625 -0.28125,1.3125 -0.953125,1.328125 V -2.75 H 0.84375 v 1.875 c 0,0.78125 0.59375,0.9375 0.984375,0.9375 0.46875,0 0.78125,-0.390625 0.78125,-0.9375 V -1.265625 H 2.375 v 0.375 c 0,0.484375 -0.21875,0.734375 -0.5,0.734375 -0.46875,0 -0.46875,-0.578125 -0.46875,-0.703125 z m 0,0"
                   id="path140" />
              </g>
              <g
                 id="g142"
                 transform="translate(31.386869,6.836)">
                <path
                   style="stroke:none"
                   d="m 3.59375,-2.109375 c 0,-0.609375 -0.296875,-0.96875 -1.046875,-0.96875 -0.625,0 -0.96875,0.375 -1.125,0.640625 V -4.84375 L 0.375,-4.765625 v 0.25 c 0.46875,0 0.53125,0.0625 0.53125,0.390625 v 3.578125 C 0.90625,-0.25 0.828125,-0.25 0.375,-0.25 V 0 C 0.390625,0 0.875,-0.03125 1.171875,-0.03125 1.421875,-0.03125 1.90625,0 1.96875,0 v -0.25 c -0.453125,0 -0.515625,0 -0.515625,-0.296875 V -1.8125 c 0,-0.71875 0.578125,-1.0625 1.03125,-1.0625 0.484375,0 0.546875,0.375 0.546875,0.734375 v 1.59375 C 3.03125,-0.25 2.96875,-0.25 2.515625,-0.25 V 0 C 2.53125,0 3.015625,-0.03125 3.3125,-0.03125 3.5625,-0.03125 4.046875,0 4.109375,0 v -0.25 c -0.453125,0 -0.515625,0 -0.515625,-0.296875 z m 0,0"
                   id="path141" />
              </g>
              <g
                 id="g143"
                 transform="translate(35.787338,6.836)">
                <path
                   style="stroke:none"
                   d="m 3.0625,-1.59375 c 0.15625,0 0.203125,0 0.203125,-0.140625 0,-0.625 -0.34375,-1.375 -1.390625,-1.375 -0.90625,0 -1.609375,0.71875 -1.609375,1.578125 0,0.890625 0.78125,1.59375 1.703125,1.59375 0.9375,0 1.296875,-0.75 1.296875,-0.90625 0,-0.015625 -0.015625,-0.09375 -0.125,-0.09375 -0.09375,0 -0.109375,0.046875 -0.125,0.109375 -0.21875,0.5625 -0.75,0.671875 -1,0.671875 C 1.6875,-0.15625 1.375,-0.296875 1.171875,-0.5625 0.90625,-0.890625 0.90625,-1.3125 0.90625,-1.59375 Z M 0.90625,-1.765625 C 0.984375,-2.75 1.609375,-2.90625 1.875,-2.90625 c 0.859375,0 0.890625,0.96875 0.90625,1.140625 z m 0,0"
                   id="path142" />
              </g>
            </g>
            <g
               style="fill:#000000;fill-opacity:1"
               id="g149">
              <g
                 id="g145"
                 transform="translate(42.014244,6.836)">
                <path
                   style="stroke:none"
                   d="M 1.40625,-2.75 H 2.484375 V -3 H 1.40625 v -1.28125 h -0.25 c 0,0.625 -0.28125,1.3125 -0.953125,1.328125 V -2.75 H 0.84375 v 1.875 c 0,0.78125 0.59375,0.9375 0.984375,0.9375 0.46875,0 0.78125,-0.390625 0.78125,-0.9375 V -1.265625 H 2.375 v 0.375 c 0,0.484375 -0.21875,0.734375 -0.5,0.734375 -0.46875,0 -0.46875,-0.578125 -0.46875,-0.703125 z m 0,0"
                   id="path144" />
              </g>
              <g
                 id="g146"
                 transform="translate(45.12735,6.836)">
                <path
                   style="stroke:none"
                   d="m 3.0625,-1.59375 c 0.15625,0 0.203125,0 0.203125,-0.140625 0,-0.625 -0.34375,-1.375 -1.390625,-1.375 -0.90625,0 -1.609375,0.71875 -1.609375,1.578125 0,0.890625 0.78125,1.59375 1.703125,1.59375 0.9375,0 1.296875,-0.75 1.296875,-0.90625 0,-0.015625 -0.015625,-0.09375 -0.125,-0.09375 -0.09375,0 -0.109375,0.046875 -0.125,0.109375 -0.21875,0.5625 -0.75,0.671875 -1,0.671875 C 1.6875,-0.15625 1.375,-0.296875 1.171875,-0.5625 0.90625,-0.890625 0.90625,-1.3125 0.90625,-1.59375 Z M 0.90625,-1.765625 C 0.984375,-2.75 1.609375,-2.90625 1.875,-2.90625 c 0.859375,0 0.890625,0.96875 0.90625,1.140625 z m 0,0"
                   id="path145" />
              </g>
              <g
                 id="g147"
                 transform="translate(48.669342,6.836)">
                <path
                   style="stroke:none"
                   d="m 5.734375,-2.109375 c 0,-0.609375 -0.3125,-0.96875 -1.046875,-0.96875 -0.5625,0 -0.9375,0.296875 -1.125,0.65625 -0.140625,-0.5 -0.515625,-0.65625 -1.015625,-0.65625 -0.578125,0 -0.9375,0.3125 -1.140625,0.6875 v -0.6875 L 0.375,-3 v 0.25 c 0.46875,0 0.53125,0.046875 0.53125,0.390625 v 1.8125 C 0.90625,-0.25 0.828125,-0.25 0.375,-0.25 V 0 C 0.390625,0 0.875,-0.03125 1.171875,-0.03125 1.421875,-0.03125 1.90625,0 1.96875,0 v -0.25 c -0.453125,0 -0.515625,0 -0.515625,-0.296875 V -1.8125 c 0,-0.71875 0.578125,-1.0625 1.03125,-1.0625 0.484375,0 0.546875,0.375 0.546875,0.734375 v 1.59375 C 3.03125,-0.25 2.96875,-0.25 2.515625,-0.25 V 0 C 2.53125,0 3.015625,-0.03125 3.3125,-0.03125 3.5625,-0.03125 4.046875,0 4.109375,0 v -0.25 c -0.453125,0 -0.515625,0 -0.515625,-0.296875 V -1.8125 c 0,-0.71875 0.578125,-1.0625 1.03125,-1.0625 0.484375,0 0.546875,0.375 0.546875,0.734375 v 1.59375 C 5.171875,-0.25 5.109375,-0.25 4.65625,-0.25 V 0 c 0.015625,0 0.5,-0.03125 0.796875,-0.03125 C 5.703125,-0.03125 6.1875,0 6.25,0 v -0.25 c -0.453125,0 -0.515625,0 -0.515625,-0.296875 z m 0,0"
                   id="path146" />
              </g>
              <g
                 id="g148"
                 transform="translate(55.214252,6.836)">
                <path
                   style="stroke:none"
                   d="m 1.9375,1.09375 c -0.453125,0 -0.515625,0 -0.515625,-0.296875 v -1.125 C 1.453125,-0.296875 1.78125,0.0625 2.359375,0.0625 3.28125,0.0625 4.0625,-0.625 4.0625,-1.5 c 0,-0.859375 -0.703125,-1.578125 -1.59375,-1.578125 -0.390625,0 -0.796875,0.15625 -1.078125,0.4375 v -0.4375 L 0.34375,-3 v 0.25 c 0.484375,0 0.515625,0.046875 0.515625,0.328125 v 3.21875 c 0,0.296875 -0.0625,0.296875 -0.515625,0.296875 v 0.265625 c 0.015625,0 0.5,-0.03125 0.796875,-0.03125 0.25,0 0.734375,0.015625 0.796875,0.03125 z M 1.421875,-2.328125 C 1.625,-2.671875 2.03125,-2.84375 2.390625,-2.84375 c 0.59375,0 1.046875,0.609375 1.046875,1.34375 0,0.796875 -0.53125,1.375 -1.109375,1.375 -0.625,0 -0.890625,-0.53125 -0.90625,-0.578125 z m 0,0"
                   id="path147" />
              </g>
            </g>
            <g
               style="fill:#000000;fill-opacity:1"
               id="g34">
              <g
                 id="g150"
                 transform="translate(59.823933,6.836)">
                <path
                   style="stroke:none"
                   d="m 3.0625,-1.59375 c 0.15625,0 0.203125,0 0.203125,-0.140625 0,-0.625 -0.34375,-1.375 -1.390625,-1.375 -0.90625,0 -1.609375,0.71875 -1.609375,1.578125 0,0.890625 0.78125,1.59375 1.703125,1.59375 0.9375,0 1.296875,-0.75 1.296875,-0.90625 0,-0.015625 -0.015625,-0.09375 -0.125,-0.09375 -0.09375,0 -0.109375,0.046875 -0.125,0.109375 -0.21875,0.5625 -0.75,0.671875 -1,0.671875 C 1.6875,-0.15625 1.375,-0.296875 1.171875,-0.5625 0.90625,-0.890625 0.90625,-1.3125 0.90625,-1.59375 Z M 0.90625,-1.765625 C 0.984375,-2.75 1.609375,-2.90625 1.875,-2.90625 c 0.859375,0 0.890625,0.96875 0.90625,1.140625 z m 0,0"
                   id="path149" />
              </g>
            </g>
            <g
               style="fill:#000000;fill-opacity:1"
               id="g157">
              <g
                 id="g151"
                 transform="translate(63.372902,6.836)">
                <path
                   style="stroke:none"
                   d="m 1.390625,-1.59375 c 0,-0.578125 0.265625,-1.28125 0.9375,-1.28125 -0.0625,0.046875 -0.125,0.140625 -0.125,0.25 0,0.234375 0.1875,0.3125 0.3125,0.3125 0.171875,0 0.328125,-0.109375 0.328125,-0.3125 0,-0.234375 -0.234375,-0.453125 -0.5625,-0.453125 -0.34375,0 -0.734375,0.21875 -0.9375,0.75 v -0.75 L 0.34375,-3 v 0.25 c 0.46875,0 0.515625,0.046875 0.515625,0.390625 v 1.8125 C 0.859375,-0.25 0.796875,-0.25 0.34375,-0.25 V 0 c 0.03125,0 0.5,-0.03125 0.796875,-0.03125 0.296875,0 0.59375,0.015625 0.90625,0.03125 V -0.25 H 1.90625 c -0.515625,0 -0.515625,-0.078125 -0.515625,-0.3125 z m 0,0"
                   id="path150" />
              </g>
              <g
                 id="g152"
                 transform="translate(66.486008,6.836)">
                <path
                   style="stroke:none"
                   d="m 3.109375,-1.875 c 0,-0.359375 0,-0.625 -0.328125,-0.890625 C 2.5,-3 2.171875,-3.109375 1.75,-3.109375 c -0.65625,0 -1.125,0.25 -1.125,0.671875 0,0.234375 0.15625,0.34375 0.34375,0.34375 0.1875,0 0.328125,-0.140625 0.328125,-0.328125 0,-0.109375 -0.0625,-0.265625 -0.25,-0.3125 0.25,-0.171875 0.65625,-0.171875 0.6875,-0.171875 0.390625,0 0.828125,0.25 0.828125,0.84375 v 0.203125 C 2.171875,-1.84375 1.71875,-1.8125 1.203125,-1.625 c -0.625,0.21875 -0.8125,0.609375 -0.8125,0.921875 0,0.59375 0.71875,0.765625 1.21875,0.765625 0.546875,0 0.875,-0.3125 1.03125,-0.578125 0.015625,0.28125 0.203125,0.546875 0.53125,0.546875 0.015625,0 0.6875,0 0.6875,-0.65625 V -1.015625 H 3.625 v 0.375 c 0,0.078125 0,0.40625 -0.265625,0.40625 -0.25,0 -0.25,-0.328125 -0.25,-0.40625 z M 2.5625,-0.984375 c 0,0.671875 -0.59375,0.859375 -0.90625,0.859375 -0.359375,0 -0.6875,-0.234375 -0.6875,-0.578125 0,-0.390625 0.328125,-0.921875 1.59375,-0.96875 z m 0,0"
                   id="path151" />
              </g>
              <g
                 id="g153"
                 transform="translate(70.457581,6.836)">
                <path
                   style="stroke:none"
                   d="M 1.40625,-2.75 H 2.484375 V -3 H 1.40625 v -1.28125 h -0.25 c 0,0.625 -0.28125,1.3125 -0.953125,1.328125 V -2.75 H 0.84375 v 1.875 c 0,0.78125 0.59375,0.9375 0.984375,0.9375 0.46875,0 0.78125,-0.390625 0.78125,-0.9375 V -1.265625 H 2.375 v 0.375 c 0,0.484375 -0.21875,0.734375 -0.5,0.734375 -0.46875,0 -0.46875,-0.578125 -0.46875,-0.703125 z m 0,0"
                   id="path152" />
              </g>
              <g
                 id="g154"
                 transform="translate(73.570686,6.836)">
                <path
                   style="stroke:none"
                   d="m 2.515625,-3 v 0.25 c 0.46875,0 0.515625,0.046875 0.515625,0.390625 v 1.203125 c 0,0.609375 -0.390625,1.03125 -0.921875,1.03125 -0.625,0 -0.65625,-0.296875 -0.65625,-0.65625 V -3.078125 L 0.375,-3 v 0.25 c 0.53125,0 0.53125,0.03125 0.53125,0.640625 V -1.0625 c 0,0.484375 0,1.125 1.15625,1.125 0.15625,0 0.65625,0 1,-0.578125 V 0.0625 L 4.109375,0 v -0.25 c -0.46875,0 -0.515625,-0.046875 -0.515625,-0.390625 v -2.4375 z m 0,0"
                   id="path153" />
              </g>
              <g
                 id="g155"
                 transform="translate(77.971153,6.836)">
                <path
                   style="stroke:none"
                   d="m 1.390625,-1.59375 c 0,-0.578125 0.265625,-1.28125 0.9375,-1.28125 -0.0625,0.046875 -0.125,0.140625 -0.125,0.25 0,0.234375 0.1875,0.3125 0.3125,0.3125 0.171875,0 0.328125,-0.109375 0.328125,-0.3125 0,-0.234375 -0.234375,-0.453125 -0.5625,-0.453125 -0.34375,0 -0.734375,0.21875 -0.9375,0.75 v -0.75 L 0.34375,-3 v 0.25 c 0.46875,0 0.515625,0.046875 0.515625,0.390625 v 1.8125 C 0.859375,-0.25 0.796875,-0.25 0.34375,-0.25 V 0 c 0.03125,0 0.5,-0.03125 0.796875,-0.03125 0.296875,0 0.59375,0.015625 0.90625,0.03125 V -0.25 H 1.90625 c -0.515625,0 -0.515625,-0.078125 -0.515625,-0.3125 z m 0,0"
                   id="path154" />
              </g>
              <g
                 id="g156"
                 transform="translate(81.084259,6.836)">
                <path
                   style="stroke:none"
                   d="m 3.0625,-1.59375 c 0.15625,0 0.203125,0 0.203125,-0.140625 0,-0.625 -0.34375,-1.375 -1.390625,-1.375 -0.90625,0 -1.609375,0.71875 -1.609375,1.578125 0,0.890625 0.78125,1.59375 1.703125,1.59375 0.9375,0 1.296875,-0.75 1.296875,-0.90625 0,-0.015625 -0.015625,-0.09375 -0.125,-0.09375 -0.09375,0 -0.109375,0.046875 -0.125,0.109375 -0.21875,0.5625 -0.75,0.671875 -1,0.671875 C 1.6875,-0.15625 1.375,-0.296875 1.171875,-0.5625 0.90625,-0.890625 0.90625,-1.3125 0.90625,-1.59375 Z M 0.90625,-1.765625 C 0.984375,-2.75 1.609375,-2.90625 1.875,-2.90625 c 0.859375,0 0.890625,0.96875 0.90625,1.140625 z m 0,0"
                   id="path155" />
              </g>
            </g>
            <g
               style="fill:#000000;fill-opacity:1"
               id="g41">
              <g
                 id="g158"
                 transform="translate(87.311165,6.836)">
                <path
                   style="stroke:none"
                   d="m 3.109375,-1.875 c 0,-0.359375 0,-0.625 -0.328125,-0.890625 C 2.5,-3 2.171875,-3.109375 1.75,-3.109375 c -0.65625,0 -1.125,0.25 -1.125,0.671875 0,0.234375 0.15625,0.34375 0.34375,0.34375 0.1875,0 0.328125,-0.140625 0.328125,-0.328125 0,-0.109375 -0.0625,-0.265625 -0.25,-0.3125 0.25,-0.171875 0.65625,-0.171875 0.6875,-0.171875 0.390625,0 0.828125,0.25 0.828125,0.84375 v 0.203125 C 2.171875,-1.84375 1.71875,-1.8125 1.203125,-1.625 c -0.625,0.21875 -0.8125,0.609375 -0.8125,0.921875 0,0.59375 0.71875,0.765625 1.21875,0.765625 0.546875,0 0.875,-0.3125 1.03125,-0.578125 0.015625,0.28125 0.203125,0.546875 0.53125,0.546875 0.015625,0 0.6875,0 0.6875,-0.65625 V -1.015625 H 3.625 v 0.375 c 0,0.078125 0,0.40625 -0.265625,0.40625 -0.25,0 -0.25,-0.328125 -0.25,-0.40625 z M 2.5625,-0.984375 c 0,0.671875 -0.59375,0.859375 -0.90625,0.859375 -0.359375,0 -0.6875,-0.234375 -0.6875,-0.578125 0,-0.390625 0.328125,-0.921875 1.59375,-0.96875 z m 0,0"
                   id="path157" />
              </g>
            </g>
            <g
               style="fill:#000000;fill-opacity:1"
               id="g160">
              <g
                 id="g159"
                 transform="translate(91.275772,6.836)">
                <path
                   style="stroke:none"
                   d="M 1.40625,-2.75 H 2.484375 V -3 H 1.40625 v -1.28125 h -0.25 c 0,0.625 -0.28125,1.3125 -0.953125,1.328125 V -2.75 H 0.84375 v 1.875 c 0,0.78125 0.59375,0.9375 0.984375,0.9375 0.46875,0 0.78125,-0.390625 0.78125,-0.9375 V -1.265625 H 2.375 v 0.375 c 0,0.484375 -0.21875,0.734375 -0.5,0.734375 -0.46875,0 -0.46875,-0.578125 -0.46875,-0.703125 z m 0,0"
                   id="path158" />
              </g>
            </g>
            <g
               style="fill:#000000;fill-opacity:1"
               id="g163">
              <g
                 id="g161"
                 transform="translate(1.993,15.204)">
                <path
                   style="stroke:none"
                   d="m 3.0625,-1.59375 c 0.15625,0 0.203125,0 0.203125,-0.140625 0,-0.625 -0.34375,-1.375 -1.390625,-1.375 -0.90625,0 -1.609375,0.71875 -1.609375,1.578125 0,0.890625 0.78125,1.59375 1.703125,1.59375 0.9375,0 1.296875,-0.75 1.296875,-0.90625 0,-0.015625 -0.015625,-0.09375 -0.125,-0.09375 -0.09375,0 -0.109375,0.046875 -0.125,0.109375 -0.21875,0.5625 -0.75,0.671875 -1,0.671875 C 1.6875,-0.15625 1.375,-0.296875 1.171875,-0.5625 0.90625,-0.890625 0.90625,-1.3125 0.90625,-1.59375 Z M 0.90625,-1.765625 C 0.984375,-2.75 1.609375,-2.90625 1.875,-2.90625 c 0.859375,0 0.890625,0.96875 0.90625,1.140625 z m 0,0"
                   id="path160" />
              </g>
              <g
                 id="g162"
                 transform="translate(5.5349932,15.204)">
                <path
                   style="stroke:none"
                   d="M 3.296875,-2.328125 C 3.5,-2.75 3.84375,-2.75 3.953125,-2.75 V -3 c -0.171875,0.015625 -0.34375,0.03125 -0.53125,0.03125 -0.1875,0 -0.4375,-0.015625 -0.625,-0.03125 v 0.25 c 0.296875,0.015625 0.296875,0.234375 0.296875,0.265625 0,0.03125 -0.015625,0.09375 -0.0625,0.203125 L 2.25,-0.5625 1.375,-2.453125 C 1.375,-2.46875 1.34375,-2.546875 1.34375,-2.59375 1.34375,-2.75 1.578125,-2.75 1.6875,-2.75 V -3 c -0.015625,0 -0.5,0.03125 -0.78125,0.03125 -0.21875,0 -0.484375,-0.015625 -0.6875,-0.03125 v 0.25 c 0.375,0 0.46875,0.015625 0.5625,0.25 l 1.109375,2.421875 C 1.921875,0 1.96875,0.0625 2.078125,0.0625 2.21875,0.0625 2.25,0 2.28125,-0.0625 Z m 0,0"
                   id="path161" />
              </g>
            </g>
            <g
               style="fill:#000000;fill-opacity:1"
               id="g167">
              <g
                 id="g164"
                 transform="translate(9.5044804,15.204)">
                <path
                   style="stroke:none"
                   d="m 3.0625,-1.59375 c 0.15625,0 0.203125,0 0.203125,-0.140625 0,-0.625 -0.34375,-1.375 -1.390625,-1.375 -0.90625,0 -1.609375,0.71875 -1.609375,1.578125 0,0.890625 0.78125,1.59375 1.703125,1.59375 0.9375,0 1.296875,-0.75 1.296875,-0.90625 0,-0.015625 -0.015625,-0.09375 -0.125,-0.09375 -0.09375,0 -0.109375,0.046875 -0.125,0.109375 -0.21875,0.5625 -0.75,0.671875 -1,0.671875 C 1.6875,-0.15625 1.375,-0.296875 1.171875,-0.5625 0.90625,-0.890625 0.90625,-1.3125 0.90625,-1.59375 Z M 0.90625,-1.765625 C 0.984375,-2.75 1.609375,-2.90625 1.875,-2.90625 c 0.859375,0 0.890625,0.96875 0.90625,1.140625 z m 0,0"
                   id="path163" />
              </g>
              <g
                 id="g165"
                 transform="translate(13.046473,15.204)">
                <path
                   style="stroke:none"
                   d="m 1.390625,-1.59375 c 0,-0.578125 0.265625,-1.28125 0.9375,-1.28125 -0.0625,0.046875 -0.125,0.140625 -0.125,0.25 0,0.234375 0.1875,0.3125 0.3125,0.3125 0.171875,0 0.328125,-0.109375 0.328125,-0.3125 0,-0.234375 -0.234375,-0.453125 -0.5625,-0.453125 -0.34375,0 -0.734375,0.21875 -0.9375,0.75 v -0.75 L 0.34375,-3 v 0.25 c 0.46875,0 0.515625,0.046875 0.515625,0.390625 v 1.8125 C 0.859375,-0.25 0.796875,-0.25 0.34375,-0.25 V 0 c 0.03125,0 0.5,-0.03125 0.796875,-0.03125 0.296875,0 0.59375,0.015625 0.90625,0.03125 V -0.25 H 1.90625 c -0.515625,0 -0.515625,-0.078125 -0.515625,-0.3125 z m 0,0"
                   id="path164" />
              </g>
              <g
                 id="g166"
                 transform="translate(16.159576,15.204)">
                <path
                   style="stroke:none"
                   d="M 3.296875,-2.328125 C 3.484375,-2.75 3.84375,-2.75 3.953125,-2.75 V -3 c -0.1875,0.015625 -0.328125,0.03125 -0.53125,0.03125 -0.1875,0 -0.4375,-0.015625 -0.625,-0.03125 v 0.25 c 0.234375,0.015625 0.28125,0.15625 0.28125,0.265625 0,0.078125 -0.03125,0.140625 -0.0625,0.21875 L 2.25,-0.625 1.390625,-2.453125 C 1.359375,-2.5 1.34375,-2.546875 1.34375,-2.59375 1.34375,-2.75 1.578125,-2.75 1.703125,-2.75 V -3 C 1.59375,-3 1.09375,-2.96875 0.90625,-2.96875 0.6875,-2.96875 0.421875,-2.984375 0.21875,-3 v 0.25 c 0.390625,0 0.46875,0.015625 0.5625,0.234375 L 1.953125,0 c -0.0625,0.140625 -0.125,0.265625 -0.1875,0.40625 -0.15625,0.34375 -0.375,0.8125 -0.859375,0.8125 -0.171875,0 -0.21875,-0.03125 -0.296875,-0.078125 0.015625,0 0.203125,-0.0625 0.203125,-0.296875 0,-0.171875 -0.125,-0.296875 -0.296875,-0.296875 -0.1875,0 -0.3125,0.125 -0.3125,0.296875 0,0.328125 0.328125,0.578125 0.703125,0.578125 0.59375,0 0.9375,-0.625 1.03125,-0.828125 z m 0,0"
                   id="path165" />
              </g>
            </g>
            <g
               style="fill:#000000;fill-opacity:1"
               id="g169">
              <g
                 id="g168"
                 transform="translate(23.030165,15.204)">
                <path
                   style="stroke:none"
                   d="m 1.9375,1.09375 c -0.453125,0 -0.515625,0 -0.515625,-0.296875 v -1.125 C 1.453125,-0.296875 1.78125,0.0625 2.359375,0.0625 3.28125,0.0625 4.0625,-0.625 4.0625,-1.5 c 0,-0.859375 -0.703125,-1.578125 -1.59375,-1.578125 -0.390625,0 -0.796875,0.15625 -1.078125,0.4375 v -0.4375 L 0.34375,-3 v 0.25 c 0.484375,0 0.515625,0.046875 0.515625,0.328125 v 3.21875 c 0,0.296875 -0.0625,0.296875 -0.515625,0.296875 v 0.265625 c 0.015625,0 0.5,-0.03125 0.796875,-0.03125 0.25,0 0.734375,0.015625 0.796875,0.03125 z M 1.421875,-2.328125 C 1.625,-2.671875 2.03125,-2.84375 2.390625,-2.84375 c 0.59375,0 1.046875,0.609375 1.046875,1.34375 0,0.796875 -0.53125,1.375 -1.109375,1.375 -0.625,0 -0.890625,-0.53125 -0.90625,-0.578125 z m 0,0"
                   id="path167" />
              </g>
            </g>
            <g
               style="fill:#000000;fill-opacity:1"
               id="g173">
              <g
                 id="g170"
                 transform="translate(27.64682,15.204)">
                <path
                   style="stroke:none"
                   d="m 3.6875,-1.484375 c 0,-0.875 -0.75,-1.625 -1.703125,-1.625 -0.96875,0 -1.71875,0.75 -1.71875,1.625 0,0.859375 0.765625,1.546875 1.71875,1.546875 0.9375,0 1.703125,-0.6875 1.703125,-1.546875 z M 1.984375,-0.15625 c -0.265625,0 -0.640625,-0.078125 -0.875,-0.421875 -0.1875,-0.28125 -0.203125,-0.640625 -0.203125,-0.96875 0,-0.296875 0,-0.71875 0.25,-1.015625 0.171875,-0.203125 0.46875,-0.34375 0.828125,-0.34375 0.40625,0 0.703125,0.1875 0.859375,0.40625 0.1875,0.265625 0.203125,0.625 0.203125,0.953125 0,0.328125 -0.015625,0.703125 -0.21875,0.984375 -0.1875,0.265625 -0.5,0.40625 -0.84375,0.40625 z m 0,0"
                   id="path169" />
              </g>
              <g
                 id="g171"
                 transform="translate(31.618401,15.204)">
                <path
                   style="stroke:none"
                   d="m 1.46875,-4.296875 c 0,-0.203125 -0.171875,-0.40625 -0.40625,-0.40625 -0.203125,0 -0.390625,0.171875 -0.390625,0.40625 0,0.25 0.203125,0.40625 0.390625,0.40625 0.234375,0 0.40625,-0.171875 0.40625,-0.40625 z M 0.40625,-3 v 0.25 c 0.4375,0 0.5,0.046875 0.5,0.390625 v 1.8125 C 0.90625,-0.25 0.84375,-0.25 0.390625,-0.25 V 0 c 0.015625,0 0.5,-0.03125 0.78125,-0.03125 0.25,0 0.5,0.015625 0.734375,0.03125 V -0.25 C 1.5,-0.25 1.4375,-0.25 1.4375,-0.546875 v -2.53125 z m 0,0"
                   id="path170" />
              </g>
              <g
                 id="g172"
                 transform="translate(33.873726,15.204)">
                <path
                   style="stroke:none"
                   d="m 3.59375,-2.109375 c 0,-0.609375 -0.296875,-0.96875 -1.046875,-0.96875 -0.578125,0 -0.9375,0.3125 -1.140625,0.6875 v -0.6875 L 0.375,-3 v 0.25 c 0.46875,0 0.53125,0.046875 0.53125,0.390625 v 1.8125 C 0.90625,-0.25 0.828125,-0.25 0.375,-0.25 V 0 C 0.390625,0 0.875,-0.03125 1.171875,-0.03125 1.421875,-0.03125 1.90625,0 1.96875,0 v -0.25 c -0.453125,0 -0.515625,0 -0.515625,-0.296875 V -1.8125 c 0,-0.71875 0.578125,-1.0625 1.03125,-1.0625 0.484375,0 0.546875,0.375 0.546875,0.734375 v 1.59375 C 3.03125,-0.25 2.96875,-0.25 2.515625,-0.25 V 0 C 2.53125,0 3.015625,-0.03125 3.3125,-0.03125 3.5625,-0.03125 4.046875,0 4.109375,0 v -0.25 c -0.453125,0 -0.515625,0 -0.515625,-0.296875 z m 0,0"
                   id="path171" />
              </g>
            </g>
            <g
               style="fill:#000000;fill-opacity:1"
               id="g175">
              <g
                 id="g174"
                 transform="translate(38.058006,15.204)">
                <path
                   style="stroke:none"
                   d="M 1.40625,-2.75 H 2.484375 V -3 H 1.40625 v -1.28125 h -0.25 c 0,0.625 -0.28125,1.3125 -0.953125,1.328125 V -2.75 H 0.84375 v 1.875 c 0,0.78125 0.59375,0.9375 0.984375,0.9375 0.46875,0 0.78125,-0.390625 0.78125,-0.9375 V -1.265625 H 2.375 v 0.375 c 0,0.484375 -0.21875,0.734375 -0.5,0.734375 -0.46875,0 -0.46875,-0.578125 -0.46875,-0.703125 z m 0,0"
                   id="path173" />
              </g>
            </g>
            <g
               style="fill:#000000;fill-opacity:1"
               id="g178">
              <g
                 id="g176"
                 transform="translate(43.856026,15.204)">
                <path
                   style="stroke:none"
                   d="m 1.46875,-4.296875 c 0,-0.203125 -0.171875,-0.40625 -0.40625,-0.40625 -0.203125,0 -0.390625,0.171875 -0.390625,0.40625 0,0.25 0.203125,0.40625 0.390625,0.40625 0.234375,0 0.40625,-0.171875 0.40625,-0.40625 z M 0.40625,-3 v 0.25 c 0.4375,0 0.5,0.046875 0.5,0.390625 v 1.8125 C 0.90625,-0.25 0.84375,-0.25 0.390625,-0.25 V 0 c 0.015625,0 0.5,-0.03125 0.78125,-0.03125 0.25,0 0.5,0.015625 0.734375,0.03125 V -0.25 C 1.5,-0.25 1.4375,-0.25 1.4375,-0.546875 v -2.53125 z m 0,0"
                   id="path175" />
              </g>
              <g
                 id="g177"
                 transform="translate(46.111351,15.204)">
                <path
                   style="stroke:none"
                   d="m 3.59375,-2.109375 c 0,-0.609375 -0.296875,-0.96875 -1.046875,-0.96875 -0.578125,0 -0.9375,0.3125 -1.140625,0.6875 v -0.6875 L 0.375,-3 v 0.25 c 0.46875,0 0.53125,0.046875 0.53125,0.390625 v 1.8125 C 0.90625,-0.25 0.828125,-0.25 0.375,-0.25 V 0 C 0.390625,0 0.875,-0.03125 1.171875,-0.03125 1.421875,-0.03125 1.90625,0 1.96875,0 v -0.25 c -0.453125,0 -0.515625,0 -0.515625,-0.296875 V -1.8125 c 0,-0.71875 0.578125,-1.0625 1.03125,-1.0625 0.484375,0 0.546875,0.375 0.546875,0.734375 v 1.59375 C 3.03125,-0.25 2.96875,-0.25 2.515625,-0.25 V 0 C 2.53125,0 3.015625,-0.03125 3.3125,-0.03125 3.5625,-0.03125 4.046875,0 4.109375,0 v -0.25 c -0.453125,0 -0.515625,0 -0.515625,-0.296875 z m 0,0"
                   id="path176" />
              </g>
            </g>
            <g
               style="fill:#000000;fill-opacity:1"
               id="g182">
              <g
                 id="g179"
                 transform="translate(53.196732,15.204)">
                <path
                   style="stroke:none"
                   d="M 1.40625,-2.75 H 2.484375 V -3 H 1.40625 v -1.28125 h -0.25 c 0,0.625 -0.28125,1.3125 -0.953125,1.328125 V -2.75 H 0.84375 v 1.875 c 0,0.78125 0.59375,0.9375 0.984375,0.9375 0.46875,0 0.78125,-0.390625 0.78125,-0.9375 V -1.265625 H 2.375 v 0.375 c 0,0.484375 -0.21875,0.734375 -0.5,0.734375 -0.46875,0 -0.46875,-0.578125 -0.46875,-0.703125 z m 0,0"
                   id="path178" />
              </g>
              <g
                 id="g180"
                 transform="translate(56.309837,15.204)">
                <path
                   style="stroke:none"
                   d="m 3.59375,-2.109375 c 0,-0.609375 -0.296875,-0.96875 -1.046875,-0.96875 -0.625,0 -0.96875,0.375 -1.125,0.640625 V -4.84375 L 0.375,-4.765625 v 0.25 c 0.46875,0 0.53125,0.0625 0.53125,0.390625 v 3.578125 C 0.90625,-0.25 0.828125,-0.25 0.375,-0.25 V 0 C 0.390625,0 0.875,-0.03125 1.171875,-0.03125 1.421875,-0.03125 1.90625,0 1.96875,0 v -0.25 c -0.453125,0 -0.515625,0 -0.515625,-0.296875 V -1.8125 c 0,-0.71875 0.578125,-1.0625 1.03125,-1.0625 0.484375,0 0.546875,0.375 0.546875,0.734375 v 1.59375 C 3.03125,-0.25 2.96875,-0.25 2.515625,-0.25 V 0 C 2.53125,0 3.015625,-0.03125 3.3125,-0.03125 3.5625,-0.03125 4.046875,0 4.109375,0 v -0.25 c -0.453125,0 -0.515625,0 -0.515625,-0.296875 z m 0,0"
                   id="path179" />
              </g>
              <g
                 id="g181"
                 transform="translate(60.710304,15.204)">
                <path
                   style="stroke:none"
                   d="m 3.0625,-1.59375 c 0.15625,0 0.203125,0 0.203125,-0.140625 0,-0.625 -0.34375,-1.375 -1.390625,-1.375 -0.90625,0 -1.609375,0.71875 -1.609375,1.578125 0,0.890625 0.78125,1.59375 1.703125,1.59375 0.9375,0 1.296875,-0.75 1.296875,-0.90625 0,-0.015625 -0.015625,-0.09375 -0.125,-0.09375 -0.09375,0 -0.109375,0.046875 -0.125,0.109375 -0.21875,0.5625 -0.75,0.671875 -1,0.671875 C 1.6875,-0.15625 1.375,-0.296875 1.171875,-0.5625 0.90625,-0.890625 0.90625,-1.3125 0.90625,-1.59375 Z M 0.90625,-1.765625 C 0.984375,-2.75 1.609375,-2.90625 1.875,-2.90625 c 0.859375,0 0.890625,0.96875 0.90625,1.140625 z m 0,0"
                   id="path180" />
              </g>
            </g>
            <g
               style="fill:#000000;fill-opacity:1"
               id="g186">
              <g
                 id="g183"
                 transform="translate(66.93721,15.204)">
                <path
                   style="stroke:none"
                   d="M 1.390625,-4.84375 0.34375,-4.765625 v 0.25 c 0.46875,0 0.515625,0.0625 0.515625,0.40625 V 0 H 1.09375 l 0.25,-0.421875 C 1.609375,-0.078125 2,0.0625 2.359375,0.0625 3.28125,0.0625 4.0625,-0.625 4.0625,-1.5 c 0,-0.859375 -0.703125,-1.578125 -1.625,-1.578125 -0.421875,0 -0.796875,0.171875 -1.046875,0.421875 z m 0.03125,2.515625 C 1.609375,-2.65625 1.984375,-2.875 2.40625,-2.875 c 0.390625,0 0.671875,0.21875 0.8125,0.421875 0.140625,0.203125 0.21875,0.484375 0.21875,0.9375 0,0.15625 0,0.6875 -0.28125,1.015625 -0.28125,0.3125 -0.625,0.375 -0.828125,0.375 -0.5625,0 -0.84375,-0.4375 -0.90625,-0.578125 z m 0,0"
                   id="path182" />
              </g>
              <g
                 id="g184"
                 transform="translate(71.337677,15.204)">
                <path
                   style="stroke:none"
                   d="m 3.109375,-1.875 c 0,-0.359375 0,-0.625 -0.328125,-0.890625 C 2.5,-3 2.171875,-3.109375 1.75,-3.109375 c -0.65625,0 -1.125,0.25 -1.125,0.671875 0,0.234375 0.15625,0.34375 0.34375,0.34375 0.1875,0 0.328125,-0.140625 0.328125,-0.328125 0,-0.109375 -0.0625,-0.265625 -0.25,-0.3125 0.25,-0.171875 0.65625,-0.171875 0.6875,-0.171875 0.390625,0 0.828125,0.25 0.828125,0.84375 v 0.203125 C 2.171875,-1.84375 1.71875,-1.8125 1.203125,-1.625 c -0.625,0.21875 -0.8125,0.609375 -0.8125,0.921875 0,0.59375 0.71875,0.765625 1.21875,0.765625 0.546875,0 0.875,-0.3125 1.03125,-0.578125 0.015625,0.28125 0.203125,0.546875 0.53125,0.546875 0.015625,0 0.6875,0 0.6875,-0.65625 V -1.015625 H 3.625 v 0.375 c 0,0.078125 0,0.40625 -0.265625,0.40625 -0.25,0 -0.25,-0.328125 -0.25,-0.40625 z M 2.5625,-0.984375 c 0,0.671875 -0.59375,0.859375 -0.90625,0.859375 -0.359375,0 -0.6875,-0.234375 -0.6875,-0.578125 0,-0.390625 0.328125,-0.921875 1.59375,-0.96875 z m 0,0"
                   id="path183" />
              </g>
              <g
                 id="g185"
                 transform="translate(75.309258,15.204)">
                <path
                   style="stroke:none"
                   d="m 1.390625,-1.59375 c 0,-0.578125 0.265625,-1.28125 0.9375,-1.28125 -0.0625,0.046875 -0.125,0.140625 -0.125,0.25 0,0.234375 0.1875,0.3125 0.3125,0.3125 0.171875,0 0.328125,-0.109375 0.328125,-0.3125 0,-0.234375 -0.234375,-0.453125 -0.5625,-0.453125 -0.34375,0 -0.734375,0.21875 -0.9375,0.75 v -0.75 L 0.34375,-3 v 0.25 c 0.46875,0 0.515625,0.046875 0.515625,0.390625 v 1.8125 C 0.859375,-0.25 0.796875,-0.25 0.34375,-0.25 V 0 c 0.03125,0 0.5,-0.03125 0.796875,-0.03125 0.296875,0 0.59375,0.015625 0.90625,0.03125 V -0.25 H 1.90625 c -0.515625,0 -0.515625,-0.078125 -0.515625,-0.3125 z m 0,0"
                   id="path184" />
              </g>
            </g>
            <g
               style="fill:#000000;fill-opacity:1"
               id="g189">
              <g
                 id="g187"
                 transform="translate(81.107277,15.204)">
                <path
                   style="stroke:none"
                   d="m 3.109375,-1.875 c 0,-0.359375 0,-0.625 -0.328125,-0.890625 C 2.5,-3 2.171875,-3.109375 1.75,-3.109375 c -0.65625,0 -1.125,0.25 -1.125,0.671875 0,0.234375 0.15625,0.34375 0.34375,0.34375 0.1875,0 0.328125,-0.140625 0.328125,-0.328125 0,-0.109375 -0.0625,-0.265625 -0.25,-0.3125 0.25,-0.171875 0.65625,-0.171875 0.6875,-0.171875 0.390625,0 0.828125,0.25 0.828125,0.84375 v 0.203125 C 2.171875,-1.84375 1.71875,-1.8125 1.203125,-1.625 c -0.625,0.21875 -0.8125,0.609375 -0.8125,0.921875 0,0.59375 0.71875,0.765625 1.21875,0.765625 0.546875,0 0.875,-0.3125 1.03125,-0.578125 0.015625,0.28125 0.203125,0.546875 0.53125,0.546875 0.015625,0 0.6875,0 0.6875,-0.65625 V -1.015625 H 3.625 v 0.375 c 0,0.078125 0,0.40625 -0.265625,0.40625 -0.25,0 -0.25,-0.328125 -0.25,-0.40625 z M 2.5625,-0.984375 c 0,0.671875 -0.59375,0.859375 -0.90625,0.859375 -0.359375,0 -0.6875,-0.234375 -0.6875,-0.578125 0,-0.390625 0.328125,-0.921875 1.59375,-0.96875 z m 0,0"
                   id="path186" />
              </g>
              <g
                 id="g188"
                 transform="translate(85.07885,15.204)">
                <path
                   style="stroke:none"
                   d="M 1.40625,-2.75 H 2.484375 V -3 H 1.40625 v -1.28125 h -0.25 c 0,0.625 -0.28125,1.3125 -0.953125,1.328125 V -2.75 H 0.84375 v 1.875 c 0,0.78125 0.59375,0.9375 0.984375,0.9375 0.46875,0 0.78125,-0.390625 0.78125,-0.9375 V -1.265625 H 2.375 v 0.375 c 0,0.484375 -0.21875,0.734375 -0.5,0.734375 -0.46875,0 -0.46875,-0.578125 -0.46875,-0.703125 z m 0,0"
                   id="path187" />
              </g>
            </g>
            <g
               style="fill:#000000;fill-opacity:1"
               id="g191">
              <g
                 id="g190"
                 transform="translate(90.875,15.204)">
                <path
                   style="stroke:none"
                   d="m 1.71875,-2.75 h 0.703125 c 0.140625,0 0.21875,0 0.21875,-0.15625 C 2.640625,-3 2.5625,-3 2.4375,-3 H 1.78125 l 0.25,-1.03125 C 2.046875,-4.0625 2.0625,-4.109375 2.0625,-4.125 c 0,-0.140625 -0.109375,-0.234375 -0.25,-0.234375 -0.171875,0 -0.265625,0.125 -0.328125,0.296875 C 1.4375,-3.875 1.53125,-4.21875 1.21875,-3 H 0.515625 c -0.125,0 -0.21875,0 -0.21875,0.15625 C 0.296875,-2.75 0.375,-2.75 0.5,-2.75 H 1.15625 L 0.75,-1.109375 C 0.703125,-0.9375 0.640625,-0.6875 0.640625,-0.59375 c 0,0.40625 0.359375,0.65625 0.75,0.65625 0.78125,0 1.21875,-0.96875 1.21875,-1.0625 0,-0.09375 -0.09375,-0.09375 -0.109375,-0.09375 -0.09375,0 -0.09375,0.015625 -0.15625,0.140625 -0.1875,0.4375 -0.546875,0.828125 -0.921875,0.828125 -0.15625,0 -0.25,-0.09375 -0.25,-0.34375 0,-0.0625 0.03125,-0.21875 0.046875,-0.28125 z m 0,0"
                   id="path189" />
              </g>
            </g>
            <g
               style="fill:#000000;fill-opacity:1"
               id="g193">
              <g
                 id="g192"
                 transform="translate(93.884003,16.201)">
                <path
                   style="stroke:none"
                   d="M 3,-1.59375 C 3,-1.953125 3,-3.3125 1.6875,-3.3125 c -1.296875,0 -1.296875,1.359375 -1.296875,1.71875 0,0.359375 0,1.703125 1.296875,1.703125 C 3,0.109375 3,-1.234375 3,-1.59375 Z M 1.6875,-0.0625 C 1.515625,-0.0625 1.09375,-0.125 0.96875,-0.625 0.890625,-0.890625 0.890625,-1.25 0.890625,-1.65625 c 0,-0.375 0,-0.71875 0.078125,-1 0.125,-0.421875 0.515625,-0.5 0.71875,-0.5 0.375,0 0.640625,0.1875 0.734375,0.546875 C 2.5,-2.359375 2.5,-1.953125 2.5,-1.65625 c 0,0.34375 0,0.75 -0.078125,1.046875 C 2.296875,-0.125 1.890625,-0.0625 1.6875,-0.0625 Z m 0,0"
                   id="path191" />
              </g>
            </g>
          </g>
        </g>
      </g>
    </g>
  </g>
</svg>
