<?xml version="1.0" encoding="UTF-8" standalone="no"?>
<!-- Created with Inkscape (http://www.inkscape.org/) -->

<svg
   width="210mm"
   height="297mm"
   viewBox="0 0 793.70081 1122.5196"
   version="1.1"
   id="svg5"
   inkscape:version="1.3 (1:1.3+202307231459+0e150ed6c4)"
   sodipodi:docname="drawing.svg"
   xmlns:inkscape="http://www.inkscape.org/namespaces/inkscape"
   xmlns:sodipodi="http://sodipodi.sourceforge.net/DTD/sodipodi-0.dtd"
   xmlns="http://www.w3.org/2000/svg"
   xmlns:svg="http://www.w3.org/2000/svg">
  <sodipodi:namedview
     id="namedview7"
     pagecolor="#505050"
     bordercolor="#eeeeee"
     borderopacity="1"
     inkscape:pageshadow="0"
     inkscape:pageopacity="0"
     inkscape:pagecheckerboard="false"
     inkscape:document-units="mm"
     showgrid="false"
     width="170mm"
     inkscape:zoom="0.70710678"
     inkscape:cx="128.69343"
     inkscape:cy="411.53615"
     inkscape:window-width="1920"
     inkscape:window-height="1017"
     inkscape:window-x="0"
     inkscape:window-y="32"
     inkscape:window-maximized="1"
     inkscape:current-layer="layer1"
     height="50mm"
     inkscape:showpageshadow="0"
     inkscape:deskcolor="#505050"
     showborder="true"
     showguides="false">
    <sodipodi:guide
       position="-15.199201,552.99565"
       orientation="0,642.51969"
       id="guide1"
       inkscape:locked="false" />
    <sodipodi:guide
       position="627.3205,552.99565"
       orientation="188.97638,0"
       id="guide2"
       inkscape:locked="false" />
    <sodipodi:guide
       position="627.3205,364.01927"
       orientation="0,-642.51969"
       id="guide3"
       inkscape:locked="false" />
    <sodipodi:guide
       position="-15.199201,364.01927"
       orientation="-188.97638,0"
       id="guide4"
       inkscape:locked="false" />
  </sodipodi:namedview>
  <defs
     id="defs2">
    <marker
       style="overflow:visible"
       id="TriangleInS"
       refX="0"
       refY="0"
       orient="auto"
       inkscape:stockid="TriangleInS"
       inkscape:isstock="true">
      <path
         transform="scale(-0.2)"
         style="fill:context-stroke;fill-rule:evenodd;stroke:context-stroke;stroke-width:1pt"
         d="M 5.77,0 -2.88,5 V -5 Z"
         id="path52001" />
    </marker>
    <marker
       style="overflow:visible"
       id="TriangleOutS"
       refX="0"
       refY="0"
       orient="auto"
       inkscape:stockid="TriangleOutS"
       inkscape:isstock="true">
      <path
         transform="scale(0.2)"
         style="fill:context-stroke;fill-rule:evenodd;stroke:context-stroke;stroke-width:1pt"
         d="M 5.77,0 -2.88,5 V -5 Z"
         id="path52010" />
    </marker>
    <marker
       style="overflow:visible"
       id="Arrow2Send"
       refX="0"
       refY="0"
       orient="auto"
       inkscape:stockid="Arrow2Send"
       inkscape:isstock="true">
      <path
         transform="matrix(-0.3,0,0,-0.3,0.69,0)"
         d="M 8.7185878,4.0337352 -2.2072895,0.01601326 8.7185884,-4.0017078 c -1.7454984,2.3720609 -1.7354408,5.6174519 -6e-7,8.035443 z"
         style="fill:context-stroke;fill-rule:evenodd;stroke:context-stroke;stroke-width:0.625;stroke-linejoin:round"
         id="path51895" />
    </marker>
    <marker
       style="overflow:visible"
       id="Arrow1Send"
       refX="0"
       refY="0"
       orient="auto"
       inkscape:stockid="Arrow1Send"
       inkscape:isstock="true">
      <path
         transform="matrix(-0.2,0,0,-0.2,-1.2,0)"
         style="fill:context-stroke;fill-rule:evenodd;stroke:context-stroke;stroke-width:1pt"
         d="M 0,0 5,-5 -12.5,0 5,5 Z"
         id="path51877" />
    </marker>
    <marker
       style="overflow:visible"
       id="Arrow1Sstart"
       refX="0"
       refY="0"
       orient="auto"
       inkscape:stockid="Arrow1Sstart"
       inkscape:isstock="true">
      <path
         transform="matrix(0.2,0,0,0.2,1.2,0)"
         style="fill:context-stroke;fill-rule:evenodd;stroke:context-stroke;stroke-width:1pt"
         d="M 0,0 5,-5 -12.5,0 5,5 Z"
         id="path51874" />
    </marker>
    <marker
       style="overflow:visible"
       id="Arrow1Lend"
       refX="0"
       refY="0"
       orient="auto"
       inkscape:stockid="Arrow1Lend"
       inkscape:isstock="true">
      <path
         transform="matrix(-0.8,0,0,-0.8,-10,0)"
         style="fill:context-stroke;fill-rule:evenodd;stroke:context-stroke;stroke-width:1pt"
         d="M 0,0 5,-5 -12.5,0 5,5 Z"
         id="path51865" />
    </marker>
    <marker
       style="overflow:visible"
       id="marker1938"
       refX="0"
       refY="0"
       orient="auto"
       inkscape:stockid="TriangleInS"
       inkscape:isstock="true">
      <path
         transform="scale(-0.2)"
         style="fill:context-stroke;fill-rule:evenodd;stroke:context-stroke;stroke-width:1pt"
         d="M 5.77,0 -2.88,5 V -5 Z"
         id="path1761" />
    </marker>
    <marker
       style="overflow:visible"
       id="marker1883"
       refX="0"
       refY="0"
       orient="auto"
       inkscape:stockid="TriangleOutS"
       inkscape:isstock="true">
      <path
         transform="scale(0.2)"
         style="fill:context-stroke;fill-rule:evenodd;stroke:context-stroke;stroke-width:1pt"
         d="M 5.77,0 -2.88,5 V -5 Z"
         id="path1770" />
    </marker>
  </defs>
  <g
     inkscape:label="Layer 1"
     inkscape:groupmode="layer"
     id="layer1"
     transform="translate(-15.1992,-14.84694)">
    <g
       id="g22"
       inkscape:label="1"
       transform="matrix(2.25,0,0,2.25,-326.84593,-354.90159)">
      <path
         style="fill:none;stroke:#000000;stroke-width:1px;stroke-linecap:butt;stroke-linejoin:miter;stroke-opacity:1"
         d="M 33.556936,25.077213 V 160.01703"
         id="path4" />
      <path
         style="fill:none;stroke:#000000;stroke-width:1px;stroke-linecap:butt;stroke-linejoin:miter;stroke-opacity:1"
         d="M 18.049838,149.26227 H 208.46746"
         id="path5" />
      <text
         xml:space="preserve"
         style="font-size:13.3333px;line-height:1.25;font-family:sans-serif"
         x="30.131924"
         y="21.891193"
         id="text6"><tspan
           sodipodi:role="line"
           x="30.131924"
           y="21.891193"
           id="tspan14">u</tspan></text>
      <text
         xml:space="preserve"
         style="font-size:13.3333px;line-height:1.25;font-family:sans-serif"
         x="212.83615"
         y="153.91039"
         id="text8"><tspan
           sodipodi:role="line"
           x="212.83615"
           y="153.91039"
           id="tspan15">x</tspan></text>
      <path
         style="fill:none;stroke:#000000;stroke-width:1px;stroke-linecap:butt;stroke-linejoin:miter;stroke-opacity:1"
         d="m 34.503588,101.69532 c 0,0 15.16917,25.82688 28.157502,25.44652 12.988335,-0.38035 17.216819,-42.392131 33.181349,-42.794329 15.964531,-0.402198 8.561261,25.561209 27.077331,25.561209 18.51606,0 21.19445,-24.636077 34.16099,-24.636077 12.96654,0 32.5981,11.198282 43.77398,11.198282"
         id="path8" />
    </g>
    <g
       id="g21"
       inkscape:label="2"
       transform="matrix(2.25,0,0,2.25,-326.84593,-354.90159)">
      <path
         style="fill:none;stroke:#000000;stroke-width:1px;stroke-linecap:butt;stroke-linejoin:miter;stroke-opacity:1"
         d="M 321.95164,28.323293 V 163.26312"
         id="path4-2" />
      <path
         style="fill:none;stroke:#000000;stroke-width:1px;stroke-linecap:butt;stroke-linejoin:miter;stroke-opacity:1"
         d="M 306.44454,152.50836 H 496.86216"
         id="path5-9" />
      <text
         xml:space="preserve"
         style="font-size:13.3333px;line-height:1.25;font-family:sans-serif"
         x="318.52661"
         y="25.137274"
         id="text6-1"><tspan
           sodipodi:role="line"
           x="318.52661"
           y="25.137274"
           id="tspan7-2">u</tspan></text>
      <text
         xml:space="preserve"
         style="font-size:13.3333px;line-height:1.25;font-family:sans-serif"
         x="501.23087"
         y="157.15646"
         id="text8-7"><tspan
           sodipodi:role="line"
           id="tspan8-0"
           x="501.23087"
           y="157.15646">x</tspan></text>
      <path
         style="fill:none;stroke:#000000;stroke-width:1px;stroke-linecap:butt;stroke-linejoin:miter;stroke-opacity:1"
         d="m 322.89829,104.9414 c 0,0 15.16917,21.82688 28.1575,21.44652 12.98834,-0.38035 17.21682,-34.392131 33.18135,-34.794329 15.96453,-0.402198 8.56126,17.561209 27.07733,17.561209 18.51606,0 21.19445,-16.636077 34.16099,-16.636077 12.96654,0 32.5981,7.198282 43.77398,7.198282"
         id="path8-9"
         sodipodi:nodetypes="cssssc" />
    </g>
    <g
       id="g20"
       inkscape:label="3"
       transform="matrix(2.25,0,0,2.25,-326.84593,-354.90159)">
      <path
         style="fill:none;stroke:#000000;stroke-width:1px;stroke-linecap:butt;stroke-linejoin:miter;stroke-opacity:1"
         d="M 30.7063,221.75251 V 356.69234"
         id="path4-2-3" />
      <path
         style="fill:none;stroke:#000000;stroke-width:1px;stroke-linecap:butt;stroke-linejoin:miter;stroke-opacity:1"
         d="M 15.1992,345.93758 H 205.61682"
         id="path5-9-6" />
      <text
         xml:space="preserve"
         style="font-size:13.3333px;line-height:1.25;font-family:sans-serif"
         x="27.281273"
         y="218.5665"
         id="text6-1-0"><tspan
           sodipodi:role="line"
           x="27.281273"
           y="218.5665"
           id="tspan7-2-6">u</tspan></text>
      <text
         xml:space="preserve"
         style="font-size:13.3333px;line-height:1.25;font-family:sans-serif"
         x="209.98552"
         y="350.58569"
         id="text8-7-2"><tspan
           sodipodi:role="line"
           id="tspan8-0-6"
           x="209.98552"
           y="350.58569">x</tspan></text>
      <path
         style="fill:none;stroke:#000000;stroke-width:1px;stroke-linecap:butt;stroke-linejoin:miter;stroke-opacity:1"
         d="m 31.65295,298.37062 c 0,0 15.16917,17.82688 28.1575,17.44652 12.98834,-0.38035 17.21682,-26.39213 33.18135,-26.79433 15.96453,-0.4022 8.56126,9.56121 27.07733,9.56121 18.51606,0 21.19445,-8.63608 34.16099,-8.63608 12.96654,0 32.5981,3.19829 43.77398,3.19829"
         id="path8-9-1"
         sodipodi:nodetypes="cssssc" />
    </g>
    <g
       id="g19"
       inkscape:label="4"
       transform="matrix(2.25,0,0,2.25,-326.84593,-354.90159)">
      <path
         style="fill:none;stroke:#000000;stroke-width:1px;stroke-linecap:butt;stroke-linejoin:miter;stroke-opacity:1"
         d="M 295.50709,232.05578 V 366.99561"
         id="path4-2-3-8"
         sodipodi:nodetypes="cc" />
      <path
         style="fill:none;stroke:#000000;stroke-width:1px;stroke-linecap:butt;stroke-linejoin:miter;stroke-opacity:1"
         d="M 279.99999,356.24085 H 470.41761"
         id="path5-9-6-7"
         sodipodi:nodetypes="cc" />
      <text
         xml:space="preserve"
         style="font-size:13.3333px;line-height:1.25;font-family:sans-serif"
         x="292.08206"
         y="228.86977"
         id="text6-1-0-9"><tspan
           sodipodi:role="line"
           x="292.08206"
           y="228.86977"
           id="tspan16">u</tspan></text>
      <text
         xml:space="preserve"
         style="font-size:13.3333px;line-height:1.25;font-family:sans-serif"
         x="474.78632"
         y="360.88898"
         id="text8-7-2-0"><tspan
           sodipodi:role="line"
           id="tspan8-0-6-2"
           x="474.78632"
           y="360.88898">x</tspan></text>
      <path
         style="fill:none;stroke:#000000;stroke-width:1px;stroke-linecap:butt;stroke-linejoin:miter;stroke-opacity:1"
         d="m 296.45374,308.67389 c 0,0 15.16917,13.82688 28.1575,13.44652 12.98834,-0.38035 17.21682,-18.39213 33.18135,-18.79433 15.96453,-0.4022 8.56126,1.56121 27.07733,1.56121 18.51606,0 21.19445,-0.63608 34.16099,-0.63608 12.96654,0 32.5981,-0.80171 43.77398,-0.80171"
         id="path8-9-1-3"
         sodipodi:nodetypes="cssssc" />
    </g>
    <g
       id="g18"
       inkscape:label="5"
       transform="matrix(2.25,0,0,2.25,-326.84593,-354.90159)">
      <path
         style="fill:none;stroke:#000000;stroke-width:1px;stroke-linecap:butt;stroke-linejoin:miter;stroke-opacity:1"
         d="M 36.274918,416.24582 V 551.18565"
         id="path4-2-3-8-1"
         sodipodi:nodetypes="cc" />
      <path
         style="fill:none;stroke:#000000;stroke-width:1px;stroke-linecap:butt;stroke-linejoin:miter;stroke-opacity:1"
         d="M 20.767818,540.43089 H 211.18544"
         id="path5-9-6-7-2"
         sodipodi:nodetypes="cc" />
      <text
         xml:space="preserve"
         style="font-size:13.3333px;line-height:1.25;font-family:sans-serif"
         x="32.849888"
         y="413.05981"
         id="text6-1-0-9-9"><tspan
           sodipodi:role="line"
           x="32.849888"
           y="413.05981"
           id="tspan7-2-6-2-3">u</tspan></text>
      <text
         xml:space="preserve"
         style="font-size:13.3333px;line-height:1.25;font-family:sans-serif"
         x="215.55414"
         y="545.07904"
         id="text8-7-2-0-1"><tspan
           sodipodi:role="line"
           id="tspan8-0-6-2-9"
           x="215.55414"
           y="545.07904">x</tspan></text>
      <path
         style="fill:none;stroke:#000000;stroke-width:1px;stroke-linecap:butt;stroke-linejoin:miter;stroke-opacity:1"
         d="m 37.221568,492.86393 c 0,0 15.16917,7.82688 28.1575,7.44652 12.98834,-0.38035 17.21682,-10.39213 33.18135,-10.79433 15.964532,-0.4022 8.561262,-0.43879 27.077332,-0.43879 18.51606,0 21.19445,-0.63608 34.16099,-0.63608 12.96654,0 32.5981,-0.80171 43.77398,-0.80171"
         id="path8-9-1-3-4"
         sodipodi:nodetypes="cssssc" />
    </g>
    <g
       id="g17"
       inkscape:label="6"
       transform="matrix(2.25,0,0,2.25,-326.84593,-354.90159)">
      <path
         style="fill:none;stroke:#000000;stroke-width:1px;stroke-linecap:butt;stroke-linejoin:miter;stroke-opacity:1"
         d="M 296.50709,418.05577 V 552.9956"
         id="path4-2-3-8-1-7"
         sodipodi:nodetypes="cc" />
      <path
         style="fill:none;stroke:#000000;stroke-width:1px;stroke-linecap:butt;stroke-linejoin:miter;stroke-opacity:1"
         d="M 280.99999,542.24084 H 471.41761"
         id="path5-9-6-7-2-8"
         sodipodi:nodetypes="cc" />
      <text
         xml:space="preserve"
         style="font-size:13.3333px;line-height:1.25;font-family:sans-serif"
         x="293.08206"
         y="414.86975"
         id="text6-1-0-9-9-4"><tspan
           sodipodi:role="line"
           x="293.08206"
           y="414.86975"
           id="tspan7-2-6-2-3-5">u</tspan></text>
      <text
         xml:space="preserve"
         style="font-size:13.3333px;line-height:1.25;font-family:sans-serif"
         x="475.78632"
         y="546.88898"
         id="text8-7-2-0-1-0"><tspan
           sodipodi:role="line"
           id="tspan8-0-6-2-9-3"
           x="475.78632"
           y="546.88898">x</tspan></text>
      <path
         style="fill:none;stroke:#000000;stroke-width:1px;stroke-linecap:butt;stroke-linejoin:miter;stroke-opacity:1"
         d="m 297.45374,494.67388 c 0,0 15.16917,1.82688 28.1575,1.44652 12.98834,-0.38035 17.21682,-4.39213 33.18135,-4.79433 15.96453,-0.4022 8.56126,-0.43879 27.07733,-0.43879 18.51606,0 21.19445,-0.63608 34.16099,-0.63608 12.96654,0 32.5981,-0.80171 43.77398,-0.80171"
         id="path8-9-1-3-4-6"
         sodipodi:nodetypes="cssssc" />
    </g>
  </g>
</svg>
